<?xml version="1.0" standalone="no"?>
<!DOCTYPE svg PUBLIC "-//W3C//DTD SVG 20010904//EN"
 "http://www.w3.org/TR/2001/REC-SVG-20010904/DTD/svg10.dtd">
<svg version="1.0" xmlns="http://www.w3.org/2000/svg"
 width="1088.000000pt" height="1280.000000pt" viewBox="0 0 1088.000000 1280.000000"
 preserveAspectRatio="xMidYMid meet">
<metadata>
Created by potrace 1.15, written by Peter Selinger 2001-2017
</metadata>
<g transform="translate(0.000000,1280.000000) scale(0.100000,-0.100000)"
fill="#673ab7" stroke="none">
<path d="M7957 12738 c-176 -313 -278 -679 -327 -1163 -18 -173 -25 -943 -10
-1026 24 -136 85 -174 167 -104 84 72 190 257 246 430 36 113 47 177 46 280
-1 128 28 295 51 295 5 0 17 -26 27 -57 14 -47 17 -96 17 -268 0 -302 -27
-421 -119 -524 -30 -34 -62 -75 -70 -91 -59 -114 73 -169 230 -96 102 47 154
116 155 204 0 34 11 61 51 127 238 397 249 905 29 1404 -92 211 -275 478 -423
619 l-35 34 -35 -64z"/>
<path d="M5874 12044 c-4 -15 -3 -131 1 -258 5 -127 8 -244 8 -261 -1 -16 -5
-111 -8 -210 -6 -144 -4 -203 9 -294 52 -350 186 -673 536 -1291 89 -157 208
-378 263 -493 94 -191 104 -207 127 -205 35 4 67 58 76 126 15 123 -13 357
-86 707 -61 292 -60 285 -38 285 32 0 81 -62 112 -142 36 -93 64 -218 121
-543 47 -267 61 -331 97 -447 21 -69 31 -82 41 -50 3 9 22 64 41 122 133 387
147 860 40 1300 -172 705 -627 1307 -1227 1625 l-106 56 -7 -27z"/>
<path d="M9900 10894 c-511 -68 -958 -254 -1355 -563 -94 -73 -328 -309 -393
-396 -140 -188 -165 -315 -62 -315 67 0 204 58 314 133 76 51 178 153 195 195
15 36 26 40 40 13 32 -59 -72 -205 -308 -433 -75 -72 -167 -158 -206 -191 -80
-69 -125 -118 -149 -164 -22 -44 -20 -67 8 -100 23 -27 28 -28 118 -28 82 0
100 4 153 30 68 33 146 101 176 154 16 29 33 41 82 60 204 77 482 243 667 399
114 95 299 284 393 402 94 116 249 351 325 492 55 101 152 308 152 323 0 7
-31 5 -150 -11z"/>
<path d="M5275 10682 c-194 -92 -307 -405 -241 -665 12 -46 136 -304 386 -805
202 -405 390 -786 418 -847 193 -424 324 -791 397 -1111 13 -58 25 -108 28
-110 14 -15 32 283 32 536 -1 336 -20 531 -81 840 -68 342 -212 782 -348 1059
-42 87 -44 96 -10 56 131 -155 248 -338 345 -540 126 -263 197 -469 348 -1005
51 -179 96 -334 100 -345 13 -32 25 280 17 459 -25 600 -141 1089 -360 1526
-88 175 -158 290 -268 437 -98 132 -361 419 -430 470 -109 79 -226 95 -333 45z"/>
<path d="M4134 9853 c2 -10 7 -36 10 -58 35 -253 100 -593 153 -810 34 -139
46 -167 156 -390 543 -1094 746 -1583 887 -2141 46 -179 100 -464 100 -522 0
-62 18 3 34 118 96 734 65 1412 -92 1968 -16 56 -26 102 -23 102 14 -1 73 -92
105 -161 87 -190 159 -494 246 -1044 58 -366 67 -418 72 -410 3 6 18 57 33
115 91 349 107 723 45 1085 -162 957 -789 1777 -1624 2124 -54 23 -100 41
-103 41 -2 0 -2 -8 1 -17z"/>
<path d="M7471 9508 c-52 -312 -183 -806 -308 -1158 -175 -495 -451 -1050
-791 -1594 -725 -1159 -1706 -2139 -2797 -2793 -556 -334 -1025 -527 -1920
-794 l-210 -63 -170 0 c-93 0 -289 1 -435 3 -245 4 -273 3 -370 -18 -155 -33
-254 -84 -349 -180 -42 -42 -86 -95 -99 -118 l-23 -43 73 5 c40 3 152 10 248
15 1110 66 2119 294 2960 670 414 185 704 368 1140 719 318 257 805 723 1065
1021 1066 1223 1740 2633 1970 4127 15 95 24 180 22 190 -3 10 -5 15 -6 11z"/>
<path d="M9495 9339 c-825 -95 -1531 -506 -1937 -1128 -37 -58 -68 -109 -68
-114 0 -13 134 -2 236 18 137 28 301 89 564 210 295 136 415 185 537 220 104
30 239 55 297 55 36 -1 -7 -25 -389 -218 -477 -242 -634 -330 -839 -469 -171
-116 -296 -216 -423 -338 l-98 -94 40 -1 c63 0 191 41 451 146 535 215 643
246 929 264 839 52 1570 450 1992 1085 33 50 68 104 77 122 l16 32 -103 40
c-219 85 -434 139 -664 166 -137 16 -495 19 -618 4z"/>
<path d="M3246 8938 c-3 -17 -6 -146 -6 -288 0 -338 24 -590 86 -915 53 -275
94 -410 231 -770 239 -626 271 -714 340 -930 153 -485 205 -944 149 -1315 -8
-52 -13 -96 -12 -97 2 -2 26 45 54 104 93 199 158 411 196 646 89 544 41 1129
-159 1934 -29 120 -52 219 -51 221 2 1 21 -26 44 -60 277 -432 439 -981 482
-1630 10 -139 9 -168 -6 -228 -21 -87 -16 -190 10 -219 70 -77 265 55 354 239
29 60 36 89 40 150 2 41 0 86 -6 100 -5 15 -5 40 0 65 59 259 62 606 7 894
-162 842 -809 1660 -1645 2079 l-102 51 -6 -31z"/>
<path d="M8597 7675 c-417 -51 -774 -196 -1069 -434 l-78 -62 19 -37 c44 -86
112 -122 228 -122 105 0 198 24 528 135 339 114 450 139 590 132 88 -4 174
-22 162 -33 -2 -2 -114 -31 -248 -65 -777 -192 -1176 -331 -1534 -534 -120
-68 -328 -205 -322 -212 8 -8 764 104 1137 168 766 131 1324 285 1845 509 152
65 476 231 470 240 -7 11 -233 102 -367 149 -252 86 -521 144 -797 171 -139
14 -431 11 -564 -5z"/>
<path d="M2661 7451 c-148 -346 -223 -688 -262 -1201 -6 -80 -14 -500 -19
-935 -9 -804 -14 -909 -55 -1190 -23 -157 -60 -322 -85 -380 -28 -66 -50 -159
-40 -175 14 -23 57 -1 120 62 267 268 487 673 599 1101 70 265 103 486 126
840 7 94 8 97 28 91 65 -19 125 -76 159 -149 21 -45 23 -64 22 -190 -1 -122
-6 -163 -38 -315 -82 -385 -99 -526 -77 -657 12 -68 58 -184 79 -197 26 -16
181 296 247 497 91 276 120 495 112 835 -5 225 -16 322 -58 527 -89 427 -312
917 -588 1290 -63 85 -210 265 -217 265 -1 0 -25 -54 -53 -119z"/>
<path d="M1364 6953 c-20 -38 -70 -126 -110 -198 -126 -224 -202 -456 -240
-730 -26 -189 -24 -585 6 -1020 26 -387 31 -781 12 -950 -24 -203 -83 -440
-147 -590 -24 -56 -12 -41 102 135 299 459 500 899 603 1320 51 209 80 420 80
579 0 52 3 92 6 88 15 -15 34 -145 40 -277 14 -321 -51 -782 -157 -1101 -50
-152 -96 -250 -165 -357 -96 -146 -122 -221 -94 -271 39 -74 238 -38 401 74
124 85 199 184 223 296 8 35 31 99 51 143 86 183 142 380 171 597 22 169 15
501 -15 679 -83 493 -297 1005 -628 1508 -51 78 -95 142 -98 142 -2 0 -21 -30
-41 -67z"/>
<path d="M8090 6364 c-478 -41 -838 -126 -1200 -282 -168 -72 -241 -111 -210
-112 14 0 66 -5 116 -10 50 -5 309 -16 575 -25 266 -8 536 -20 599 -25 116
-11 332 -39 338 -45 2 -2 -7 -12 -19 -24 -44 -41 -208 -62 -619 -81 -400 -18
-551 -33 -705 -69 -44 -11 -116 -25 -159 -31 -134 -20 -196 -50 -196 -95 0
-37 37 -72 113 -110 142 -69 343 -101 462 -73 51 12 68 12 110 1 243 -64 477
-93 800 -100 415 -9 659 12 1445 122 250 35 500 69 555 76 55 7 103 15 108 19
11 9 -86 121 -199 231 -347 335 -807 543 -1359 614 -116 15 -463 27 -555 19z"/>
<path d="M6815 5179 c-344 -25 -687 -98 -1000 -211 l-120 -43 300 -6 c424 -9
690 -38 1060 -115 180 -37 548 -137 568 -154 4 -4 -32 -1 -80 6 -623 91 -1282
99 -1748 21 l-130 -22 -3 -49 c-5 -69 28 -115 111 -156 79 -39 193 -62 474
-95 121 -14 259 -35 305 -47 88 -22 182 -59 208 -83 24 -22 153 -72 256 -101
261 -71 551 -71 898 1 171 35 350 86 721 206 171 55 337 109 370 120 33 10
111 32 174 48 62 17 115 32 118 34 4 5 -90 64 -215 136 -40 23 -137 74 -215
112 -625 305 -1365 449 -2052 398z"/>
<path d="M5420 4150 c-184 -12 -356 -47 -483 -98 l-39 -15 34 -14 c123 -52
274 -89 593 -143 358 -61 432 -78 590 -132 119 -41 275 -129 360 -203 l30 -26
-75 6 c-102 9 -311 38 -650 90 -465 72 -594 86 -850 92 -227 6 -469 -8 -500
-27 -25 -15 16 -94 77 -150 99 -90 248 -153 658 -276 304 -91 400 -131 570
-239 454 -287 993 -337 1753 -164 137 31 443 116 707 195 83 25 158 47 168 50
9 3 15 10 12 15 -11 16 -267 205 -390 286 -307 203 -628 365 -981 496 -510
189 -1114 286 -1584 257z"/>
<path d="M3675 3238 c-60 -4 -121 -12 -134 -16 l-25 -8 36 -27 c80 -61 204
-121 462 -223 402 -159 568 -229 701 -298 130 -67 256 -146 249 -158 -14 -22
-162 25 -533 169 -585 227 -790 283 -1034 283 -109 0 -155 -11 -187 -45 -32
-34 -24 -95 23 -166 102 -154 373 -359 547 -415 36 -11 72 -33 105 -64 293
-272 729 -504 1200 -638 355 -101 707 -165 1410 -257 298 -39 492 -67 703
-101 l42 -7 -41 74 c-257 453 -587 827 -1013 1146 -731 547 -1645 820 -2511
751z"/>
<path d="M1680 2707 c3 -3 73 -32 155 -65 831 -333 1412 -749 1793 -1286 34
-47 62 -89 62 -93 0 -4 -44 35 -97 88 -455 444 -1004 815 -1526 1030 -104 43
-129 58 -183 109 -115 110 -218 136 -325 83 -101 -52 -164 -169 -163 -303 1
-166 100 -275 281 -310 61 -12 62 -13 130 -98 198 -251 529 -545 863 -769 316
-211 587 -359 1251 -683 228 -111 505 -248 617 -304 111 -57 202 -100 202 -96
0 20 -87 425 -132 615 -50 211 -176 510 -294 695 -148 233 -396 508 -614 680
-480 381 -1074 623 -1685 689 -119 13 -341 25 -335 18z"/>
</g>
</svg>
